# xmcd CD database file
#
# Track frame offsets:
#        150
#        14962
#        29080
#        42537
#        55670
#        68397
#        80135
#        94380
#        108500
#        123240
#        136420
#        149507
#        162422
#        175097
#        187620
#        200100
#        214272
#        228372
#        241967
#        255030
#
# Disc length: 3570 seconds
#
# Revision: 0
# Processed by: cddbd v1.5.2PL0 Copyright (c) Steve Scherf et al.
# Submitted via: CUERipper 2.1.1
#
DISCID=220df014
DTITLE=Various Artist - Back to the Blues
DYEAR=1996
DGENRE=Blues
TTITLE0=Joe Turner - Rocks In My Bed 
TTITLE1=Leroy Carr - Midnight Hours Blues
TTITLE2=Tampa Red - You Can't Get That Stuff No More
TTITLE3=Big Bill Broonzy - Bull Cow Blues
TTITLE4=Champion Jack Dupree - Gamblin Man Blues
TTITLE5=Robert Johnson - Phonograph Blues
TTITLE6=Blind Willie McTell - Broke Down Engine
TTITLE7=Sonny Boy Williamson - Blue Birds Blues
TTITLE8=Blind Boy Fuller - Baby You Gotta Change Your Mind
TTITLE9=Leadbelly - Good Morning Blues
TTITLE10=Robert Johnson - Preaching Blues (Up Jumped The Devil)
TTITLE11=Arthur "Big Boy" Crudup - Gonna Follow My Baby
TTITLE12=Lonnie Johnson - Mr. Johnson's Swing
TTITLE13=Brownie McGhee - Picking My Tomatoes
TTITLE14=Roosevelt Sykes - 15c A Day
TTITLE15=Blind Boy Fuller - I'm A Rattlesnakin' Daddy
TTITLE16=Big Bill Broonzy - Worrying You Off My Mind
TTITLE17=Leroy Carr - Good Woman Blues
TTITLE18=Big Bill Broonzy - You Know I Got A Reason
TTITLE19=Robert Johnson - When You Got A Friend
EXTD=
EXTT0=
EXTT1=
EXTT2=
EXTT3=
EXTT4=
EXTT5=
EXTT6=
EXTT7=
EXTT8=
EXTT9=
EXTT10=
EXTT11=
EXTT12=
EXTT13=
EXTT14=
EXTT15=
EXTT16=
EXTT17=
EXTT18=
EXTT19=
PLAYORDER=
